<svg version="1.1" xmlns="http://www.w3.org/2000/svg" xmlns:xlink="http://www.w3.org/1999/xlink" width="702" height="670"><defs></defs><g><g transform="translate(-6,-30) scale(1,1)"><rect fill="#ffffff" stroke="none" x="16" y="40" width="145" height="39"></rect></g><g transform="translate(-6,-30) scale(1,1)"><path fill="none" stroke="#000000" d="M 16 40 L 161 40 L 161 79 L 16 79 L 16 40 Z Z" stroke-miterlimit="10"></path></g><g transform="translate(-6,-30) scale(1,1)"><g><path fill="none" stroke="none"></path><text fill="#000000" stroke="none" font-family="Courier" font-size="12px" font-style="normal" font-weight="bold" text-decoration="none" x="25.5" y="58.5">sem: Semaphore_PCP</text></g></g><g transform="translate(-6,-30) scale(1,1)"><path fill="none" stroke="#000000" d="M 89.5 80 L 89.5 690" stroke-miterlimit="10" stroke-dasharray="3"></path></g><g transform="translate(-6,-30) scale(1,1)"><rect fill="#ffffff" stroke="none" x="176" y="40" width="152" height="39"></rect></g><g transform="translate(-6,-30) scale(1,1)"><path fill="none" stroke="#000000" d="M 176 40 L 328 40 L 328 79 L 176 79 L 176 40 Z Z" stroke-miterlimit="10"></path></g><g transform="translate(-6,-30) scale(1,1)"><g><path fill="none" stroke="none"></path><text fill="#000000" stroke="none" font-family="Courier" font-size="12px" font-style="normal" font-weight="bold" text-decoration="none" x="185.5" y="58.5">Synchronizer_Common</text></g></g><g transform="translate(-6,-30) scale(1,1)"><path fill="none" stroke="#000000" d="M 253.5 80 L 253.5 690" stroke-miterlimit="10" stroke-dasharray="3"></path></g><g transform="translate(-6,-30) scale(1,1)"><rect fill="#ffffff" stroke="none" x="336" y="40" width="103" height="39"></rect></g><g transform="translate(-6,-30) scale(1,1)"><path fill="none" stroke="#000000" d="M 336 40 L 439 40 L 439 79 L 336 79 L 336 40 Z Z" stroke-miterlimit="10"></path></g><g transform="translate(-6,-30) scale(1,1)"><g><path fill="none" stroke="none"></path><text fill="#000000" stroke="none" font-family="Courier" font-size="12px" font-style="normal" font-weight="bold" text-decoration="none" x="345.5" y="58.5">Semaphore_RT</text></g></g><g transform="translate(-6,-30) scale(1,1)"><path fill="none" stroke="#000000" d="M 388.5 80 L 388.5 688" stroke-miterlimit="10" stroke-dasharray="3"></path></g><g transform="translate(-6,-30) scale(1,1)"><rect fill="#ffffff" stroke="none" x="448" y="40" width="103" height="39"></rect></g><g transform="translate(-6,-30) scale(1,1)"><path fill="none" stroke="#000000" d="M 448 40 L 551 40 L 551 79 L 448 79 L 448 40 Z Z" stroke-miterlimit="10"></path></g><g transform="translate(-6,-30) scale(1,1)"><g><path fill="none" stroke="none"></path><text fill="#000000" stroke="none" font-family="Courier" font-size="12px" font-style="normal" font-weight="bold" text-decoration="none" x="457.5" y="58.5">t: RT_Thread</text></g></g><g transform="translate(-6,-30) scale(1,1)"><path fill="none" stroke="#000000" d="M 500.5 80 L 500.5 626" stroke-miterlimit="10" stroke-dasharray="3"></path></g><g transform="translate(-6,-30) scale(1,1)"><rect fill="#ffffff" stroke="none" x="560" y="40" width="138" height="39"></rect></g><g transform="translate(-6,-30) scale(1,1)"><path fill="none" stroke="#000000" d="M 560 40 L 698 40 L 698 79 L 560 79 L 560 40 Z Z" stroke-miterlimit="10"></path></g><g transform="translate(-6,-30) scale(1,1)"><g><path fill="none" stroke="none"></path><text fill="#000000" stroke="none" font-family="Courier" font-size="12px" font-style="normal" font-weight="bold" text-decoration="none" x="569.5" y="58.5">Semaphore_Ceiling</text></g></g><g transform="translate(-6,-30) scale(1,1)"><path fill="none" stroke="#000000" d="M 630.5 80 L 630.5 515" stroke-miterlimit="10" stroke-dasharray="3"></path></g><g transform="translate(-6,-30) scale(1,1)"><path fill="none" stroke="#000000" d="M 32 200 L 696 200 L 696 600 L 32 600 L 32 200" stroke-miterlimit="10"></path></g><g transform="translate(-6,-30) scale(1,1)"><path fill="#ffffff" stroke="none" d="M 32 200 L 32 222 L 72 222 L 83 211 L 83 200 L 32 200"></path></g><g transform="translate(-6,-30) scale(1,1)"><path fill="none" stroke="#000000" d="M 32 200 L 32 222 L 72 222 L 83 211 L 83 200 L 32 200 L 32 200" stroke-miterlimit="10"></path></g><g transform="translate(-6,-30) scale(1,1)"><g><path fill="none" stroke="none"></path><text fill="#000000" stroke="none" font-family="Arial" font-size="13px" font-style="normal" font-weight="normal" text-decoration="none" x="57" y="217.5">!o</text></g></g><g transform="translate(-6,-30) scale(1,1)"><g><path fill="none" stroke="none"></path><text fill="#000000" stroke="none" font-family="Arial" font-size="13px" font-style="normal" font-weight="bold" text-decoration="none" x="37" y="217.5">alt</text></g></g><g transform="translate(-6,-30) scale(1,1)"><path fill="none" stroke="#000000" d="M 32 449 L 696 449" stroke-miterlimit="10" stroke-dasharray="10,3"></path></g><g transform="translate(-6,-30) scale(1,1)"><g><path fill="none" stroke="none"></path><text fill="#000000" stroke="none" font-family="Courier" font-size="15px" font-style="normal" font-weight="normal" text-decoration="none" x="165" y="230">4 : current_thread</text></g></g><g transform="translate(-6,-30) scale(1,1)"><g><path fill="none" stroke="none"></path><text fill="#000000" stroke="none" font-family="Courier" font-size="15px" font-style="normal" font-weight="normal" text-decoration="none" x="181" y="286">6 : owner(t)</text></g></g><g transform="translate(-6,-30) scale(1,1)"><g><path fill="none" stroke="none"></path><text fill="#000000" stroke="none" font-family="Courier" font-size="15px" font-style="normal" font-weight="normal" text-decoration="none" x="200" y="263">5 : t</text></g></g><g transform="translate(-6,-30) scale(1,1)"><g><path fill="none" stroke="none"></path><text fill="#000000" stroke="none" font-family="Courier" font-size="15px" font-style="normal" font-weight="normal" text-decoration="none" x="192" y="186">3 : o</text></g></g><g transform="translate(-6,-30) scale(1,1)"><g><path fill="none" stroke="none"></path><text fill="#000000" stroke="none" font-family="Courier" font-size="15px" font-style="normal" font-weight="normal" text-decoration="none" x="136" y="150">2 : owner</text></g></g><g transform="translate(-6,-30) scale(1,1)"><g><path fill="none" stroke="none"></path><text fill="#000000" stroke="none" font-family="Courier" font-size="15px" font-style="normal" font-weight="normal" text-decoration="none" x="90" y="99">1 : begin_atomic</text></g></g><g transform="translate(-6,-30) scale(1,1)"><g><path fill="none" stroke="none"></path><text fill="#000000" stroke="none" font-family="Courier" font-size="15px" font-style="normal" font-weight="normal" text-decoration="none" x="127" y="335">7 : priority</text></g></g><g transform="translate(-6,-30) scale(1,1)"><g><path fill="none" stroke="none"></path><text fill="#000000" stroke="none" font-family="Courier" font-size="15px" font-style="normal" font-weight="normal" text-decoration="none" x="143" y="383">8 : prio</text></g></g><g transform="translate(-6,-30) scale(1,1)"><g><path fill="none" stroke="none"></path><text fill="#000000" stroke="none" font-family="Courier" font-size="15px" font-style="normal" font-weight="normal" text-decoration="none" x="199" y="407">9 : priority(prio)</text></g></g><g transform="translate(-6,-30) scale(1,1)"><g><path fill="none" stroke="none"></path><text fill="#000000" stroke="none" font-family="Courier" font-size="15px" font-style="normal" font-weight="normal" text-decoration="none" x="387" y="469">10 : ceiling</text></g></g><g transform="translate(-6,-30) scale(1,1)"><g><path fill="none" stroke="none"></path><text fill="#000000" stroke="none" font-family="Courier" font-size="15px" font-style="normal" font-weight="normal" text-decoration="none" x="403" y="501">11 : cei</text></g></g><g transform="translate(-6,-30) scale(1,1)"><g><path fill="none" stroke="none"></path><text fill="#000000" stroke="none" font-family="Courier" font-size="15px" font-style="normal" font-weight="normal" text-decoration="none" x="149" y="515">12 : owner</text></g></g><g transform="translate(-6,-30) scale(1,1)"><g><path fill="none" stroke="none"></path><text fill="#000000" stroke="none" font-family="Courier" font-size="15px" font-style="normal" font-weight="normal" text-decoration="none" x="161" y="549">13 : t</text></g></g><g transform="translate(-6,-30) scale(1,1)"><g><path fill="none" stroke="none"></path><text fill="#000000" stroke="none" font-family="Courier" font-size="15px" font-style="normal" font-weight="normal" text-decoration="none" x="237" y="565">14 : priority(cei)</text></g></g><g transform="translate(-6,-30) scale(1,1)"><g><path fill="none" stroke="none"></path><text fill="#000000" stroke="none" font-family="Courier" font-size="15px" font-style="normal" font-weight="normal" text-decoration="none" x="177" y="620">15 : p</text></g></g><g transform="translate(-6,-30) scale(1,1)"><g><path fill="none" stroke="none"></path><text fill="#000000" stroke="none" font-family="Courier" font-size="15px" font-style="normal" font-weight="normal" text-decoration="none" x="100" y="646">16 : end_atomic</text></g></g><g transform="translate(-6,-30) scale(1,1)"><path fill="none" stroke="#000000" d="M 89 104 L 246 104" stroke-miterlimit="10"></path></g><g transform="translate(-6,-30) scale(1,1)"><path fill="#000000" stroke="none" d="M 235.83732514237585 108.20951775601598 L 246 104 L 235.83732514237585 99.79048224398402"></path></g><g transform="translate(-6,-30) scale(1,1)"><path fill="none" stroke="#000000" d="M 235.83732514237585 108.20951775601598 L 246 104 L 235.83732514237585 99.79048224398402 L 235.83732514237585 108.20951775601598" stroke-miterlimit="10"></path></g><g transform="translate(-6,-30) scale(1,1)"><g><path fill="none" stroke="none"></path><text fill="#000000" stroke="none" font-family="Courier" font-size="15px" font-style="normal" font-weight="normal" text-decoration="none" x="90" y="99">1 : begin_atomic</text></g></g><g transform="translate(-6,-30) scale(1,1)"><rect fill="#ffffff" stroke="none" x="246" y="104" width="13" height="28"></rect></g><g transform="translate(-6,-30) scale(1,1)"><path fill="none" stroke="#000000" d="M 246 104 L 259 104 L 259 132 L 246 132 L 246 104 Z Z" stroke-miterlimit="10"></path></g><g transform="translate(-6,-30) scale(1,1)"><path fill="none" stroke="#000000" d="M 89 152 L 381 152" stroke-miterlimit="10"></path></g><g transform="translate(-6,-30) scale(1,1)"><path fill="#000000" stroke="none" d="M 370.83732514237585 156.209517756016 L 381 152 L 370.83732514237585 147.790482243984"></path></g><g transform="translate(-6,-30) scale(1,1)"><path fill="none" stroke="#000000" d="M 370.83732514237585 156.209517756016 L 381 152 L 370.83732514237585 147.790482243984 L 370.83732514237585 156.209517756016" stroke-miterlimit="10"></path></g><g transform="translate(-6,-30) scale(1,1)"><g><path fill="none" stroke="none"></path><text fill="#000000" stroke="none" font-family="Courier" font-size="15px" font-style="normal" font-weight="normal" text-decoration="none" x="136" y="150">2 : owner</text></g></g><g transform="translate(-6,-30) scale(1,1)"><rect fill="#ffffff" stroke="none" x="381" y="152" width="13" height="28"></rect></g><g transform="translate(-6,-30) scale(1,1)"><path fill="none" stroke="#000000" d="M 381 152 L 394 152 L 394 180 L 381 180 L 381 152 Z Z" stroke-miterlimit="10"></path></g><g transform="translate(-6,-30) scale(1,1)"><path fill="none" stroke="#000000" d="M 381 168 L 89 168" stroke-miterlimit="10" stroke-dasharray="3"></path></g><g transform="translate(-6,-30) scale(1,1)"><path fill="none" stroke="#000000" d="M 99.16267485762415 163.790482243984 L 89 168 L 99.16267485762415 172.209517756016" stroke-miterlimit="10"></path></g><g transform="translate(-6,-30) scale(1,1)"><g><path fill="none" stroke="none"></path><text fill="#000000" stroke="none" font-family="Courier" font-size="15px" font-style="normal" font-weight="normal" text-decoration="none" x="192" y="186">3 : o</text></g></g><g transform="translate(-6,-30) scale(1,1)"><path fill="none" stroke="#000000" d="M 89 235 L 381 235" stroke-miterlimit="10"></path></g><g transform="translate(-6,-30) scale(1,1)"><path fill="#000000" stroke="none" d="M 370.83732514237585 239.209517756016 L 381 235 L 370.83732514237585 230.790482243984"></path></g><g transform="translate(-6,-30) scale(1,1)"><path fill="none" stroke="#000000" d="M 370.83732514237585 239.209517756016 L 381 235 L 370.83732514237585 230.790482243984 L 370.83732514237585 239.209517756016" stroke-miterlimit="10"></path></g><g transform="translate(-6,-30) scale(1,1)"><g><path fill="none" stroke="none"></path><text fill="#000000" stroke="none" font-family="Courier" font-size="15px" font-style="normal" font-weight="normal" text-decoration="none" x="165" y="230">4 : current_thread</text></g></g><g transform="translate(-6,-30) scale(1,1)"><rect fill="#ffffff" stroke="none" x="381" y="235" width="13" height="28"></rect></g><g transform="translate(-6,-30) scale(1,1)"><path fill="none" stroke="#000000" d="M 381 235 L 394 235 L 394 263 L 381 263 L 381 235 Z Z" stroke-miterlimit="10"></path></g><g transform="translate(-6,-30) scale(1,1)"><path fill="none" stroke="#000000" d="M 381 248 L 89 248" stroke-miterlimit="10" stroke-dasharray="3"></path></g><g transform="translate(-6,-30) scale(1,1)"><path fill="none" stroke="#000000" d="M 99.16267485762415 243.790482243984 L 89 248 L 99.16267485762415 252.209517756016" stroke-miterlimit="10"></path></g><g transform="translate(-6,-30) scale(1,1)"><g><path fill="none" stroke="none"></path><text fill="#000000" stroke="none" font-family="Courier" font-size="15px" font-style="normal" font-weight="normal" text-decoration="none" x="200" y="263">5 : t</text></g></g><g transform="translate(-6,-30) scale(1,1)"><path fill="none" stroke="#000000" d="M 89 288 L 381 288" stroke-miterlimit="10"></path></g><g transform="translate(-6,-30) scale(1,1)"><path fill="#000000" stroke="none" d="M 370.83732514237585 292.209517756016 L 381 288 L 370.83732514237585 283.790482243984"></path></g><g transform="translate(-6,-30) scale(1,1)"><path fill="none" stroke="#000000" d="M 370.83732514237585 292.209517756016 L 381 288 L 370.83732514237585 283.790482243984 L 370.83732514237585 292.209517756016" stroke-miterlimit="10"></path></g><g transform="translate(-6,-30) scale(1,1)"><g><path fill="none" stroke="none"></path><text fill="#000000" stroke="none" font-family="Courier" font-size="15px" font-style="normal" font-weight="normal" text-decoration="none" x="181" y="286">6 : owner(t)</text></g></g><g transform="translate(-6,-30) scale(1,1)"><rect fill="#ffffff" stroke="none" x="381" y="288" width="13" height="28"></rect></g><g transform="translate(-6,-30) scale(1,1)"><path fill="none" stroke="#000000" d="M 381 288 L 394 288 L 394 316 L 381 316 L 381 288 Z Z" stroke-miterlimit="10"></path></g><g transform="translate(-6,-30) scale(1,1)"><path fill="none" stroke="#000000" d="M 89 344 L 493 344" stroke-miterlimit="10"></path></g><g transform="translate(-6,-30) scale(1,1)"><path fill="#000000" stroke="none" d="M 482.83732514237585 348.209517756016 L 493 344 L 482.83732514237585 339.790482243984"></path></g><g transform="translate(-6,-30) scale(1,1)"><path fill="none" stroke="#000000" d="M 482.83732514237585 348.209517756016 L 493 344 L 482.83732514237585 339.790482243984 L 482.83732514237585 348.209517756016" stroke-miterlimit="10"></path></g><g transform="translate(-6,-30) scale(1,1)"><g><path fill="none" stroke="none"></path><text fill="#000000" stroke="none" font-family="Courier" font-size="15px" font-style="normal" font-weight="normal" text-decoration="none" x="127" y="335">7 : priority</text></g></g><g transform="translate(-6,-30) scale(1,1)"><rect fill="#ffffff" stroke="none" x="493" y="344" width="13" height="34"></rect></g><g transform="translate(-6,-30) scale(1,1)"><path fill="none" stroke="#000000" d="M 493 344 L 506 344 L 506 378 L 493 378 L 493 344 Z Z" stroke-miterlimit="10"></path></g><g transform="translate(-6,-30) scale(1,1)"><path fill="none" stroke="#000000" d="M 493 368 L 89 368" stroke-miterlimit="10" stroke-dasharray="3"></path></g><g transform="translate(-6,-30) scale(1,1)"><path fill="none" stroke="#000000" d="M 99.16267485762415 363.790482243984 L 89 368 L 99.16267485762415 372.209517756016" stroke-miterlimit="10"></path></g><g transform="translate(-6,-30) scale(1,1)"><g><path fill="none" stroke="none"></path><text fill="#000000" stroke="none" font-family="Courier" font-size="15px" font-style="normal" font-weight="normal" text-decoration="none" x="143" y="383">8 : prio</text></g></g><g transform="translate(-6,-30) scale(1,1)"><path fill="none" stroke="#000000" d="M 89 408 L 381 408" stroke-miterlimit="10"></path></g><g transform="translate(-6,-30) scale(1,1)"><path fill="#000000" stroke="none" d="M 370.83732514237585 412.209517756016 L 381 408 L 370.83732514237585 403.790482243984"></path></g><g transform="translate(-6,-30) scale(1,1)"><path fill="none" stroke="#000000" d="M 370.83732514237585 412.209517756016 L 381 408 L 370.83732514237585 403.790482243984 L 370.83732514237585 412.209517756016" stroke-miterlimit="10"></path></g><g transform="translate(-6,-30) scale(1,1)"><g><path fill="none" stroke="none"></path><text fill="#000000" stroke="none" font-family="Courier" font-size="15px" font-style="normal" font-weight="normal" text-decoration="none" x="199" y="407">9 : priority(prio)</text></g></g><g transform="translate(-6,-30) scale(1,1)"><rect fill="#ffffff" stroke="none" x="381" y="408" width="13" height="28"></rect></g><g transform="translate(-6,-30) scale(1,1)"><path fill="none" stroke="#000000" d="M 381 408 L 394 408 L 394 436 L 381 436 L 381 408 Z Z" stroke-miterlimit="10"></path></g><g transform="translate(-6,-30) scale(1,1)"><path fill="none" stroke="#000000" d="M 89 472 L 623 472" stroke-miterlimit="10"></path></g><g transform="translate(-6,-30) scale(1,1)"><path fill="#000000" stroke="none" d="M 612.8373251423759 476.209517756016 L 623 472 L 612.8373251423758 467.790482243984"></path></g><g transform="translate(-6,-30) scale(1,1)"><path fill="none" stroke="#000000" d="M 612.8373251423759 476.209517756016 L 623 472 L 612.8373251423758 467.790482243984 L 612.8373251423759 476.209517756016" stroke-miterlimit="10"></path></g><g transform="translate(-6,-30) scale(1,1)"><g><path fill="none" stroke="none"></path><text fill="#000000" stroke="none" font-family="Courier" font-size="15px" font-style="normal" font-weight="normal" text-decoration="none" x="387" y="469">10 : ceiling</text></g></g><g transform="translate(-6,-30) scale(1,1)"><rect fill="#ffffff" stroke="none" x="623" y="472" width="13" height="28"></rect></g><g transform="translate(-6,-30) scale(1,1)"><path fill="none" stroke="#000000" d="M 623 472 L 636 472 L 636 500 L 623 500 L 623 472 Z Z" stroke-miterlimit="10"></path></g><g transform="translate(-6,-30) scale(1,1)"><path fill="none" stroke="#000000" d="M 623 488 L 89 488" stroke-miterlimit="10" stroke-dasharray="3"></path></g><g transform="translate(-6,-30) scale(1,1)"><path fill="none" stroke="#000000" d="M 99.16267485762415 483.790482243984 L 89 488 L 99.16267485762415 492.209517756016" stroke-miterlimit="10"></path></g><g transform="translate(-6,-30) scale(1,1)"><g><path fill="none" stroke="none"></path><text fill="#000000" stroke="none" font-family="Courier" font-size="15px" font-style="normal" font-weight="normal" text-decoration="none" x="403" y="501">11 : cei</text></g></g><g transform="translate(-6,-30) scale(1,1)"><path fill="none" stroke="#000000" d="M 89 520 L 381 520" stroke-miterlimit="10"></path></g><g transform="translate(-6,-30) scale(1,1)"><path fill="#000000" stroke="none" d="M 370.83732514237585 524.209517756016 L 381 520 L 370.83732514237585 515.790482243984"></path></g><g transform="translate(-6,-30) scale(1,1)"><path fill="none" stroke="#000000" d="M 370.83732514237585 524.209517756016 L 381 520 L 370.83732514237585 515.790482243984 L 370.83732514237585 524.209517756016" stroke-miterlimit="10"></path></g><g transform="translate(-6,-30) scale(1,1)"><g><path fill="none" stroke="none"></path><text fill="#000000" stroke="none" font-family="Courier" font-size="15px" font-style="normal" font-weight="normal" text-decoration="none" x="149" y="515">12 : owner</text></g></g><g transform="translate(-6,-30) scale(1,1)"><rect fill="#ffffff" stroke="none" x="381" y="520" width="13" height="28"></rect></g><g transform="translate(-6,-30) scale(1,1)"><path fill="none" stroke="#000000" d="M 381 520 L 394 520 L 394 548 L 381 548 L 381 520 Z Z" stroke-miterlimit="10"></path></g><g transform="translate(-6,-30) scale(1,1)"><path fill="none" stroke="#000000" d="M 381 536 L 89 536" stroke-miterlimit="10" stroke-dasharray="3"></path></g><g transform="translate(-6,-30) scale(1,1)"><path fill="none" stroke="#000000" d="M 99.16267485762415 531.790482243984 L 89 536 L 99.16267485762415 540.209517756016" stroke-miterlimit="10"></path></g><g transform="translate(-6,-30) scale(1,1)"><g><path fill="none" stroke="none"></path><text fill="#000000" stroke="none" font-family="Courier" font-size="15px" font-style="normal" font-weight="normal" text-decoration="none" x="161" y="549">13 : t</text></g></g><g transform="translate(-6,-30) scale(1,1)"><path fill="none" stroke="#000000" d="M 89 568 L 493 568" stroke-miterlimit="10"></path></g><g transform="translate(-6,-30) scale(1,1)"><path fill="#000000" stroke="none" d="M 482.83732514237585 572.209517756016 L 493 568 L 482.83732514237585 563.790482243984"></path></g><g transform="translate(-6,-30) scale(1,1)"><path fill="none" stroke="#000000" d="M 482.83732514237585 572.209517756016 L 493 568 L 482.83732514237585 563.790482243984 L 482.83732514237585 572.209517756016" stroke-miterlimit="10"></path></g><g transform="translate(-6,-30) scale(1,1)"><g><path fill="none" stroke="none"></path><text fill="#000000" stroke="none" font-family="Courier" font-size="15px" font-style="normal" font-weight="normal" text-decoration="none" x="237" y="565">14 : priority(cei)</text></g></g><g transform="translate(-6,-30) scale(1,1)"><rect fill="#ffffff" stroke="none" x="493" y="568" width="13" height="28"></rect></g><g transform="translate(-6,-30) scale(1,1)"><path fill="none" stroke="#000000" d="M 493 568 L 506 568 L 506 596 L 493 596 L 493 568 Z Z" stroke-miterlimit="10"></path></g><g transform="translate(-6,-30) scale(1,1)"><path fill="none" stroke="#000000" d="M 89 624 L 381 624" stroke-miterlimit="10"></path></g><g transform="translate(-6,-30) scale(1,1)"><path fill="#000000" stroke="none" d="M 370.83732514237585 628.209517756016 L 381 624 L 370.83732514237585 619.790482243984"></path></g><g transform="translate(-6,-30) scale(1,1)"><path fill="none" stroke="#000000" d="M 370.83732514237585 628.209517756016 L 381 624 L 370.83732514237585 619.790482243984 L 370.83732514237585 628.209517756016" stroke-miterlimit="10"></path></g><g transform="translate(-6,-30) scale(1,1)"><g><path fill="none" stroke="none"></path><text fill="#000000" stroke="none" font-family="Courier" font-size="15px" font-style="normal" font-weight="normal" text-decoration="none" x="177" y="620">15 : p</text></g></g><g transform="translate(-6,-30) scale(1,1)"><rect fill="#ffffff" stroke="none" x="381" y="624" width="13" height="28"></rect></g><g transform="translate(-6,-30) scale(1,1)"><path fill="none" stroke="#000000" d="M 381 624 L 394 624 L 394 652 L 381 652 L 381 624 Z Z" stroke-miterlimit="10"></path></g><g transform="translate(-6,-30) scale(1,1)"><path fill="none" stroke="#000000" d="M 89 648 L 246 648" stroke-miterlimit="10"></path></g><g transform="translate(-6,-30) scale(1,1)"><path fill="#000000" stroke="none" d="M 235.83732514237585 652.209517756016 L 246 648 L 235.83732514237585 643.790482243984"></path></g><g transform="translate(-6,-30) scale(1,1)"><path fill="none" stroke="#000000" d="M 235.83732514237585 652.209517756016 L 246 648 L 235.83732514237585 643.790482243984 L 235.83732514237585 652.209517756016" stroke-miterlimit="10"></path></g><g transform="translate(-6,-30) scale(1,1)"><g><path fill="none" stroke="none"></path><text fill="#000000" stroke="none" font-family="Courier" font-size="15px" font-style="normal" font-weight="normal" text-decoration="none" x="100" y="646">16 : end_atomic</text></g></g><g transform="translate(-6,-30) scale(1,1)"><rect fill="#ffffff" stroke="none" x="246" y="648" width="13" height="28"></rect></g><g transform="translate(-6,-30) scale(1,1)"><path fill="none" stroke="#000000" d="M 246 648 L 259 648 L 259 676 L 246 676 L 246 648 Z Z" stroke-miterlimit="10"></path></g></g></svg>