<svg version="1.1" xmlns="http://www.w3.org/2000/svg" xmlns:xlink="http://www.w3.org/1999/xlink" width="1012" height="503"><defs></defs><g><g transform="translate(-278,-110) scale(1,1)"><rect fill="#ffffff" stroke="none" x="472" y="120" width="184" height="193"></rect></g><g transform="translate(-278,-110) scale(1,1)"><path fill="none" stroke="#000000" d="M 472 120 L 656 120 L 656 313 L 472 313 L 472 120 Z Z" stroke-miterlimit="10"></path></g><g transform="translate(-278,-110) scale(1,1)"><path fill="none" stroke="#000000" d="M 472 144 L 656 144" stroke-miterlimit="10"></path></g><g transform="translate(-278,-110) scale(1,1)"><path fill="none" stroke="#000000" d="M 472 166 L 656 166" stroke-miterlimit="10"></path></g><g transform="translate(-278,-110) scale(1,1)"><g><path fill="none" stroke="none"></path><text fill="#000000" stroke="none" font-family="Courier" font-size="12px" font-style="normal" font-weight="bold" text-decoration="none" x="497.5" y="138.5">Synchronizer_Common</text></g></g><g transform="translate(-278,-110) scale(1,1)"><g><path fill="none" stroke="none"></path><text fill="#000000" stroke="none" font-family="Courier" font-size="12px" font-style="normal" font-weight="normal" text-decoration="none" x="477" y="160.5">#_queue: Queue</text></g></g><g transform="translate(-278,-110) scale(1,1)"><g><path fill="none" stroke="none"></path><text fill="#000000" stroke="none" font-family="Courier" font-size="12px" font-style="normal" font-weight="normal" text-decoration="none" x="477" y="182.5">#Synchronizer_Common()</text></g></g><g transform="translate(-278,-110) scale(1,1)"><g><path fill="none" stroke="none"></path><text fill="#000000" stroke="none" font-family="Courier" font-size="12px" font-style="normal" font-weight="normal" text-decoration="none" x="477" y="196.5">~Synchronizer_Common()</text></g></g><g transform="translate(-278,-110) scale(1,1)"><g><path fill="none" stroke="none"></path><text fill="#000000" stroke="none" font-family="Courier" font-size="12px" font-style="normal" font-weight="normal" text-decoration="none" x="477" y="210.5">#tsl(lock: bool &amp;): bool</text></g></g><g transform="translate(-278,-110) scale(1,1)"><g><path fill="none" stroke="none"></path><text fill="#000000" stroke="none" font-family="Courier" font-size="12px" font-style="normal" font-weight="normal" text-decoration="none" x="477" y="224.5">#finc(number: int &amp;): int</text></g></g><g transform="translate(-278,-110) scale(1,1)"><g><path fill="none" stroke="none"></path><text fill="#000000" stroke="none" font-family="Courier" font-size="12px" font-style="normal" font-weight="normal" text-decoration="none" x="477" y="238.5">#fdec(number: int &amp;): int</text></g></g><g transform="translate(-278,-110) scale(1,1)"><g><path fill="none" stroke="none"></path><text fill="#000000" stroke="none" font-family="Courier" font-size="12px" font-style="normal" font-weight="normal" text-decoration="none" x="477" y="252.5">#begin_atomic(): void</text></g></g><g transform="translate(-278,-110) scale(1,1)"><g><path fill="none" stroke="none"></path><text fill="#000000" stroke="none" font-family="Courier" font-size="12px" font-style="normal" font-weight="normal" text-decoration="none" x="477" y="266.5">#end_atomic(): void</text></g></g><g transform="translate(-278,-110) scale(1,1)"><g><path fill="none" stroke="none"></path><text fill="#000000" stroke="none" font-family="Courier" font-size="12px" font-style="normal" font-weight="normal" text-decoration="none" x="477" y="280.5">#sleep(): void</text></g></g><g transform="translate(-278,-110) scale(1,1)"><g><path fill="none" stroke="none"></path><text fill="#000000" stroke="none" font-family="Courier" font-size="12px" font-style="normal" font-weight="normal" text-decoration="none" x="477" y="294.5">#wakeup(): void</text></g></g><g transform="translate(-278,-110) scale(1,1)"><g><path fill="none" stroke="none"></path><text fill="#000000" stroke="none" font-family="Courier" font-size="12px" font-style="normal" font-weight="normal" text-decoration="none" x="477" y="308.5">#wakeup_all(): void</text></g></g><g transform="translate(-278,-110) scale(1,1)"><rect fill="#ffffff" stroke="none" x="720" y="160" width="163" height="109"></rect></g><g transform="translate(-278,-110) scale(1,1)"><path fill="none" stroke="#000000" d="M 720 160 L 883 160 L 883 269 L 720 269 L 720 160 Z Z" stroke-miterlimit="10"></path></g><g transform="translate(-278,-110) scale(1,1)"><path fill="none" stroke="#000000" d="M 720 184 L 883 184" stroke-miterlimit="10"></path></g><g transform="translate(-278,-110) scale(1,1)"><path fill="none" stroke="#000000" d="M 720 206 L 883 206" stroke-miterlimit="10"></path></g><g transform="translate(-278,-110) scale(1,1)"><g><path fill="none" stroke="none"></path><text fill="#000000" stroke="none" font-family="Courier" font-size="12px" font-style="normal" font-weight="bold" text-decoration="none" x="770" y="178.5">Semaphore</text></g></g><g transform="translate(-278,-110) scale(1,1)"><g><path fill="none" stroke="none"></path><text fill="#000000" stroke="none" font-family="Courier" font-size="12px" font-style="normal" font-weight="normal" text-decoration="none" x="725" y="200.5">+_value: volatile int</text></g></g><g transform="translate(-278,-110) scale(1,1)"><g><path fill="none" stroke="none"></path><text fill="#000000" stroke="none" font-family="Courier" font-size="12px" font-style="normal" font-weight="normal" text-decoration="none" x="725" y="222.5">+Semaphore(int v  = 1)</text></g></g><g transform="translate(-278,-110) scale(1,1)"><g><path fill="none" stroke="none"></path><text fill="#000000" stroke="none" font-family="Courier" font-size="12px" font-style="normal" font-weight="normal" text-decoration="none" x="725" y="236.5">~Semaphore()</text></g></g><g transform="translate(-278,-110) scale(1,1)"><g><path fill="none" stroke="none"></path><text fill="#000000" stroke="none" font-family="Courier" font-size="12px" font-style="normal" font-weight="normal" text-decoration="none" x="725" y="250.5">+p(): void</text></g></g><g transform="translate(-278,-110) scale(1,1)"><g><path fill="none" stroke="none"></path><text fill="#000000" stroke="none" font-family="Courier" font-size="12px" font-style="normal" font-weight="normal" text-decoration="none" x="725" y="264.5">+v(): void</text></g></g><g transform="translate(-278,-110) scale(1,1)"><path fill="none" stroke="#000000" d="M 719 215 L 657 215" stroke-miterlimit="10"></path></g><g transform="translate(-278,-110) scale(1,1)"><path fill="#FFFFFF" stroke="none" d="M 677.3253497152483 206.58096448796803 L 657 215 L 677.3253497152483 223.41903551203197"></path></g><g transform="translate(-278,-110) scale(1,1)"><path fill="none" stroke="#000000" d="M 677.3253497152483 206.58096448796803 L 657 215 L 677.3253497152483 223.41903551203197 L 677.3253497152483 206.58096448796803" stroke-miterlimit="10"></path></g><g transform="translate(-278,-110) scale(1,1)"><rect fill="#ffffff" stroke="none" x="696" y="315" width="208" height="165"></rect></g><g transform="translate(-278,-110) scale(1,1)"><path fill="none" stroke="#000000" d="M 696 315 L 904 315 L 904 480 L 696 480 L 696 315 Z Z" stroke-miterlimit="10"></path></g><g transform="translate(-278,-110) scale(1,1)"><path fill="none" stroke="#000000" d="M 696 339 L 904 339" stroke-miterlimit="10"></path></g><g transform="translate(-278,-110) scale(1,1)"><path fill="none" stroke="#000000" d="M 696 375 L 904 375" stroke-miterlimit="10"></path></g><g transform="translate(-278,-110) scale(1,1)"><g><path fill="none" stroke="none"></path><text fill="#000000" stroke="none" font-family="Courier" font-size="12px" font-style="normal" font-weight="bold" text-decoration="none" x="758" y="333.5">Semaphore_RT</text></g></g><g transform="translate(-278,-110) scale(1,1)"><g><path fill="none" stroke="none"></path><text fill="#000000" stroke="none" font-family="Courier" font-size="12px" font-style="normal" font-weight="normal" text-decoration="none" x="701" y="355.5">-_owner: Thread *</text></g></g><g transform="translate(-278,-110) scale(1,1)"><g><path fill="none" stroke="none"></path><text fill="#000000" stroke="none" font-family="Courier" font-size="12px" font-style="normal" font-weight="normal" text-decoration="none" x="701" y="369.5">-_priority: int</text></g></g><g transform="translate(-278,-110) scale(1,1)"><g><path fill="none" stroke="none"></path><text fill="#000000" stroke="none" font-family="Courier" font-size="12px" font-style="normal" font-weight="normal" text-decoration="none" x="701" y="391.5">+Semaphore_RT(int v = 1)</text></g></g><g transform="translate(-278,-110) scale(1,1)"><g><path fill="none" stroke="none"></path><text fill="#000000" stroke="none" font-family="Courier" font-size="12px" font-style="normal" font-weight="normal" text-decoration="none" x="701" y="405.5">+owner(): Thread *</text></g></g><g transform="translate(-278,-110) scale(1,1)"><g><path fill="none" stroke="none"></path><text fill="#000000" stroke="none" font-family="Courier" font-size="12px" font-style="normal" font-weight="normal" text-decoration="none" x="701" y="419.5">+owner(Thread *t): void</text></g></g><g transform="translate(-278,-110) scale(1,1)"><g><path fill="none" stroke="none"></path><text fill="#000000" stroke="none" font-family="Courier" font-size="12px" font-style="normal" font-weight="normal" text-decoration="none" x="701" y="433.5">+priority(): int</text></g></g><g transform="translate(-278,-110) scale(1,1)"><g><path fill="none" stroke="none"></path><text fill="#000000" stroke="none" font-family="Courier" font-size="12px" font-style="normal" font-weight="normal" text-decoration="none" x="701" y="447.5">+priority(int p): void</text></g></g><g transform="translate(-278,-110) scale(1,1)"><g><path fill="none" stroke="none"></path><text fill="#000000" stroke="none" font-family="Courier" font-size="12px" font-style="normal" font-weight="normal" text-decoration="none" x="701" y="461.5">#current_thread(): Thread *</text></g></g><g transform="translate(-278,-110) scale(1,1)"><g><path fill="none" stroke="none"></path><text fill="#000000" stroke="none" font-family="Courier" font-size="12px" font-style="normal" font-weight="normal" text-decoration="none" x="701" y="475.5">#next_thread(): Thread *</text></g></g><g transform="translate(-278,-110) scale(1,1)"><path fill="none" stroke="#000000" d="M 800 314 L 801 270" stroke-miterlimit="10"></path></g><g transform="translate(-278,-110) scale(1,1)"><path fill="#FFFFFF" stroke="none" d="M 808.9550415064892 290.5113947509679 L 801 270 L 792.1213174738555 290.1288101138626"></path></g><g transform="translate(-278,-110) scale(1,1)"><path fill="none" stroke="#000000" d="M 808.9550415064892 290.5113947509679 L 801 270 L 792.1213174738555 290.1288101138626 L 808.9550415064892 290.5113947509679" stroke-miterlimit="10"></path></g><g transform="translate(-278,-110) scale(1,1)"><rect fill="#ffffff" stroke="none" x="400" y="352" width="226" height="95"></rect></g><g transform="translate(-278,-110) scale(1,1)"><path fill="none" stroke="#000000" d="M 400 352 L 626 352 L 626 447 L 400 447 L 400 352 Z Z" stroke-miterlimit="10"></path></g><g transform="translate(-278,-110) scale(1,1)"><path fill="none" stroke="#000000" d="M 400 376 L 626 376" stroke-miterlimit="10"></path></g><g transform="translate(-278,-110) scale(1,1)"><path fill="none" stroke="#000000" d="M 400 398 L 626 398" stroke-miterlimit="10"></path></g><g transform="translate(-278,-110) scale(1,1)"><g><path fill="none" stroke="none"></path><text fill="#000000" stroke="none" font-family="Courier" font-size="12px" font-style="normal" font-weight="bold" text-decoration="none" x="453.5" y="370.5">Semaphore_Ceiling</text></g></g><g transform="translate(-278,-110) scale(1,1)"><g><path fill="none" stroke="none"></path><text fill="#000000" stroke="none" font-family="Courier" font-size="12px" font-style="normal" font-weight="normal" text-decoration="none" x="405" y="392.5">-_ceiling: int</text></g></g><g transform="translate(-278,-110) scale(1,1)"><g><path fill="none" stroke="none"></path><text fill="#000000" stroke="none" font-family="Courier" font-size="12px" font-style="normal" font-weight="normal" text-decoration="none" x="405" y="414.5">+Semaphore_Ceiling(int ceiling)</text></g></g><g transform="translate(-278,-110) scale(1,1)"><g><path fill="none" stroke="none"></path><text fill="#000000" stroke="none" font-family="Courier" font-size="12px" font-style="normal" font-weight="normal" text-decoration="none" x="405" y="428.5">+ceiling(): int</text></g></g><g transform="translate(-278,-110) scale(1,1)"><g><path fill="none" stroke="none"></path><text fill="#000000" stroke="none" font-family="Courier" font-size="12px" font-style="normal" font-weight="normal" text-decoration="none" x="405" y="442.5">+ceiling(int ceiling): void</text></g></g><g transform="translate(-278,-110) scale(1,1)"><path fill="none" stroke="#000000" d="M 627 398 L 695 398" stroke-miterlimit="10"></path></g><g transform="translate(-278,-110) scale(1,1)"><path fill="#FFFFFF" stroke="none" d="M 674.6746502847517 406.419035512032 L 695 398 L 674.6746502847517 389.580964487968"></path></g><g transform="translate(-278,-110) scale(1,1)"><path fill="none" stroke="#000000" d="M 674.6746502847517 406.419035512032 L 695 398 L 674.6746502847517 389.580964487968 L 674.6746502847517 406.419035512032" stroke-miterlimit="10"></path></g><g transform="translate(-278,-110) scale(1,1)"><rect fill="#ffffff" stroke="none" x="736" y="520" width="121" height="83"></rect></g><g transform="translate(-278,-110) scale(1,1)"><path fill="none" stroke="#000000" d="M 736 520 L 857 520 L 857 603 L 736 603 L 736 520 Z Z" stroke-miterlimit="10"></path></g><g transform="translate(-278,-110) scale(1,1)"><path fill="none" stroke="#000000" d="M 736 544 L 857 544" stroke-miterlimit="10"></path></g><g transform="translate(-278,-110) scale(1,1)"><path fill="none" stroke="#000000" d="M 736 554 L 857 554" stroke-miterlimit="10"></path></g><g transform="translate(-278,-110) scale(1,1)"><g><path fill="none" stroke="none"></path><text fill="#000000" stroke="none" font-family="Courier" font-size="12px" font-style="normal" font-weight="bold" text-decoration="none" x="751" y="538.5">Semaphore_PIP</text></g></g><g transform="translate(-278,-110) scale(1,1)"><g><path fill="none" stroke="none"></path><text fill="#000000" stroke="none" font-family="Courier" font-size="12px" font-style="normal" font-weight="normal" text-decoration="none" x="741" y="570.5">+Semaphore_PIP()</text></g></g><g transform="translate(-278,-110) scale(1,1)"><g><path fill="none" stroke="none"></path><text fill="#000000" stroke="none" font-family="Courier" font-size="12px" font-style="normal" font-weight="normal" text-decoration="none" x="741" y="584.5">+p(): void</text></g></g><g transform="translate(-278,-110) scale(1,1)"><g><path fill="none" stroke="none"></path><text fill="#000000" stroke="none" font-family="Courier" font-size="12px" font-style="normal" font-weight="normal" text-decoration="none" x="741" y="598.5">+v(): void</text></g></g><g transform="translate(-278,-110) scale(1,1)"><path fill="none" stroke="#000000" d="M 797 519 L 798 481" stroke-miterlimit="10"></path></g><g transform="translate(-278,-110) scale(1,1)"><path fill="#FFFFFF" stroke="none" d="M 805.8814293334824 501.53979239576984 L 798 481 L 789.0491856399352 501.0968386143607"></path></g><g transform="translate(-278,-110) scale(1,1)"><path fill="none" stroke="#000000" d="M 805.8814293334824 501.53979239576984 L 798 481 L 789.0491856399352 501.0968386143607 L 805.8814293334824 501.53979239576984" stroke-miterlimit="10"></path></g><g transform="translate(-278,-110) scale(1,1)"><rect fill="#ffffff" stroke="none" x="960" y="264" width="320" height="277"></rect></g><g transform="translate(-278,-110) scale(1,1)"><path fill="none" stroke="#000000" d="M 960 264 L 1280 264 L 1280 541 L 960 541 L 960 264 Z Z" stroke-miterlimit="10"></path></g><g transform="translate(-278,-110) scale(1,1)"><path fill="none" stroke="#000000" d="M 960 288 L 1280 288" stroke-miterlimit="10"></path></g><g transform="translate(-278,-110) scale(1,1)"><path fill="none" stroke="#000000" d="M 960 422 L 1280 422" stroke-miterlimit="10"></path></g><g transform="translate(-278,-110) scale(1,1)"><g><path fill="none" stroke="none"></path><text fill="#000000" stroke="none" font-family="Courier" font-size="12px" font-style="normal" font-weight="bold" text-decoration="none" x="1074.5" y="282.5">Semaphore_SRP</text></g></g><g transform="translate(-278,-110) scale(1,1)"><g><path fill="none" stroke="none"></path><text fill="#000000" stroke="none" font-family="Courier" font-size="12px" font-style="normal" font-weight="normal" text-decoration="none" x="965" y="304.5">+MAX_TASKS: const int = 8</text><path fill="none" stroke="#000000" d="M 965 304.5 L 1140 304.5" stroke-miterlimit="10"></path></g></g><g transform="translate(-278,-110) scale(1,1)"><g><path fill="none" stroke="none"></path><text fill="#000000" stroke="none" font-family="Courier" font-size="12px" font-style="normal" font-weight="normal" text-decoration="none" x="965" y="318.5">+MAX_RESOURSES: const int = 8</text><path fill="none" stroke="#000000" d="M 965 318.5 L 1168 318.5" stroke-miterlimit="10"></path></g></g><g transform="translate(-278,-110) scale(1,1)"><g><path fill="none" stroke="none"></path><text fill="#000000" stroke="none" font-family="Courier" font-size="12px" font-style="normal" font-weight="normal" text-decoration="none" x="965" y="332.5">-_tasks[MAX_TASKS]: Thread *</text></g></g><g transform="translate(-278,-110) scale(1,1)"><g><path fill="none" stroke="none"></path><text fill="#000000" stroke="none" font-family="Courier" font-size="12px" font-style="normal" font-weight="normal" text-decoration="none" x="965" y="346.5">-_prio_levels[MAX_TASKS]: int</text></g></g><g transform="translate(-278,-110) scale(1,1)"><g><path fill="none" stroke="none"></path><text fill="#000000" stroke="none" font-family="Courier" font-size="12px" font-style="normal" font-weight="normal" text-decoration="none" x="965" y="360.5">-_nt: int</text></g></g><g transform="translate(-278,-110) scale(1,1)"><g><path fill="none" stroke="none"></path><text fill="#000000" stroke="none" font-family="Courier" font-size="12px" font-style="normal" font-weight="normal" text-decoration="none" x="965" y="374.5">-_ceiling: int</text></g></g><g transform="translate(-278,-110) scale(1,1)"><g><path fill="none" stroke="none"></path><text fill="#000000" stroke="none" font-family="Courier" font-size="12px" font-style="normal" font-weight="normal" text-decoration="none" x="965" y="388.5">-_nr: int</text><path fill="none" stroke="#000000" d="M 965 388.5 L 1028 388.5" stroke-miterlimit="10"></path></g></g><g transform="translate(-278,-110) scale(1,1)"><g><path fill="none" stroke="none"></path><text fill="#000000" stroke="none" font-family="Courier" font-size="12px" font-style="normal" font-weight="normal" text-decoration="none" x="965" y="402.5">-_system_ceiling: int</text><path fill="none" stroke="#000000" d="M 965 402.5 L 1112 402.5" stroke-miterlimit="10"></path></g></g><g transform="translate(-278,-110) scale(1,1)"><g><path fill="none" stroke="none"></path><text fill="#000000" stroke="none" font-family="Courier" font-size="12px" font-style="normal" font-weight="normal" text-decoration="none" x="965" y="416.5">-_resources[MAX_RESOURCES]: Semaphore_SRP *</text><path fill="none" stroke="#000000" d="M 965 416.5 L 1266 416.5" stroke-miterlimit="10"></path></g></g><g transform="translate(-278,-110) scale(1,1)"><g><path fill="none" stroke="none"></path><text fill="#000000" stroke="none" font-family="Courier" font-size="12px" font-style="normal" font-weight="normal" text-decoration="none" x="965" y="438.5">+Semaphore_SRP(Thread **tasks, int n_tasks)</text></g></g><g transform="translate(-278,-110) scale(1,1)"><g><path fill="none" stroke="none"></path><text fill="#000000" stroke="none" font-family="Courier" font-size="12px" font-style="normal" font-weight="normal" text-decoration="none" x="965" y="452.5">+p(): void</text></g></g><g transform="translate(-278,-110) scale(1,1)"><g><path fill="none" stroke="none"></path><text fill="#000000" stroke="none" font-family="Courier" font-size="12px" font-style="normal" font-weight="normal" text-decoration="none" x="965" y="466.5">+v(): void</text></g></g><g transform="translate(-278,-110) scale(1,1)"><g><path fill="none" stroke="none"></path><text fill="#000000" stroke="none" font-family="Courier" font-size="12px" font-style="normal" font-weight="normal" text-decoration="none" x="965" y="480.5">+prio_levels(int *levels): void</text></g></g><g transform="translate(-278,-110) scale(1,1)"><g><path fill="none" stroke="none"></path><text fill="#000000" stroke="none" font-family="Courier" font-size="12px" font-style="normal" font-weight="normal" text-decoration="none" x="965" y="494.5">+update_ceiling(): void</text></g></g><g transform="translate(-278,-110) scale(1,1)"><g><path fill="none" stroke="none"></path><text fill="#000000" stroke="none" font-family="Courier" font-size="12px" font-style="normal" font-weight="normal" text-decoration="none" x="965" y="508.5">+ceiling(): int</text></g></g><g transform="translate(-278,-110) scale(1,1)"><g><path fill="none" stroke="none"></path><text fill="#000000" stroke="none" font-family="Courier" font-size="12px" font-style="normal" font-weight="normal" text-decoration="none" x="965" y="522.5">+system_ceiling(): int</text><path fill="none" stroke="#000000" d="M 965 522.5 L 1119 522.5" stroke-miterlimit="10"></path></g></g><g transform="translate(-278,-110) scale(1,1)"><g><path fill="none" stroke="none"></path><text fill="#000000" stroke="none" font-family="Courier" font-size="12px" font-style="normal" font-weight="normal" text-decoration="none" x="965" y="536.5">+update_system_ceiling(): void</text><path fill="none" stroke="#000000" d="M 965 536.5 L 1175 536.5" stroke-miterlimit="10"></path></g></g><g transform="translate(-278,-110) scale(1,1)"><path fill="none" stroke="#000000" d="M 959 399 L 905 399" stroke-miterlimit="10"></path></g><g transform="translate(-278,-110) scale(1,1)"><path fill="#FFFFFF" stroke="none" d="M 925.3253497152483 390.580964487968 L 905 399 L 925.3253497152483 407.419035512032"></path></g><g transform="translate(-278,-110) scale(1,1)"><path fill="none" stroke="#000000" d="M 925.3253497152483 390.580964487968 L 905 399 L 925.3253497152483 407.419035512032 L 925.3253497152483 390.580964487968" stroke-miterlimit="10"></path></g><g transform="translate(-278,-110) scale(1,1)"><rect fill="#ffffff" stroke="none" x="288" y="496" width="205" height="83"></rect></g><g transform="translate(-278,-110) scale(1,1)"><path fill="none" stroke="#000000" d="M 288 496 L 493 496 L 493 579 L 288 579 L 288 496 Z Z" stroke-miterlimit="10"></path></g><g transform="translate(-278,-110) scale(1,1)"><path fill="none" stroke="#000000" d="M 288 520 L 493 520" stroke-miterlimit="10"></path></g><g transform="translate(-278,-110) scale(1,1)"><path fill="none" stroke="#000000" d="M 288 530 L 493 530" stroke-miterlimit="10"></path></g><g transform="translate(-278,-110) scale(1,1)"><g><path fill="none" stroke="none"></path><text fill="#000000" stroke="none" font-family="Courier" font-size="12px" font-style="normal" font-weight="bold" text-decoration="none" x="341.5" y="514.5">Semaphore_IPCP</text></g></g><g transform="translate(-278,-110) scale(1,1)"><g><path fill="none" stroke="none"></path><text fill="#000000" stroke="none" font-family="Courier" font-size="12px" font-style="normal" font-weight="normal" text-decoration="none" x="293" y="546.5">+Semaphore_IPCP(int ceiling)</text></g></g><g transform="translate(-278,-110) scale(1,1)"><g><path fill="none" stroke="none"></path><text fill="#000000" stroke="none" font-family="Courier" font-size="12px" font-style="normal" font-weight="normal" text-decoration="none" x="293" y="560.5">+p(): void</text></g></g><g transform="translate(-278,-110) scale(1,1)"><g><path fill="none" stroke="none"></path><text fill="#000000" stroke="none" font-family="Courier" font-size="12px" font-style="normal" font-weight="normal" text-decoration="none" x="293" y="574.5">+v(): void</text></g></g><g transform="translate(-278,-110) scale(1,1)"><path fill="none" stroke="#000000" d="M 427 495 L 469 448" stroke-miterlimit="10"></path></g><g transform="translate(-278,-110) scale(1,1)"><path fill="#FFFFFF" stroke="none" d="M 461.73429492450174 468.7655852254609 L 469 448 L 449.1788845427831 457.54585679924423"></path></g><g transform="translate(-278,-110) scale(1,1)"><path fill="none" stroke="#000000" d="M 461.73429492450174 468.7655852254609 L 469 448 L 449.1788845427831 457.54585679924423 L 461.73429492450174 468.7655852254609" stroke-miterlimit="10"></path></g><g transform="translate(-278,-110) scale(1,1)"><rect fill="#ffffff" stroke="none" x="504" y="496" width="198" height="83"></rect></g><g transform="translate(-278,-110) scale(1,1)"><path fill="none" stroke="#000000" d="M 504 496 L 702 496 L 702 579 L 504 579 L 504 496 Z Z" stroke-miterlimit="10"></path></g><g transform="translate(-278,-110) scale(1,1)"><path fill="none" stroke="#000000" d="M 504 520 L 702 520" stroke-miterlimit="10"></path></g><g transform="translate(-278,-110) scale(1,1)"><path fill="none" stroke="#000000" d="M 504 530 L 702 530" stroke-miterlimit="10"></path></g><g transform="translate(-278,-110) scale(1,1)"><g><path fill="none" stroke="none"></path><text fill="#000000" stroke="none" font-family="Courier" font-size="12px" font-style="normal" font-weight="bold" text-decoration="none" x="557.5" y="514.5">Semaphore_PCP</text></g></g><g transform="translate(-278,-110) scale(1,1)"><g><path fill="none" stroke="none"></path><text fill="#000000" stroke="none" font-family="Courier" font-size="12px" font-style="normal" font-weight="normal" text-decoration="none" x="509" y="546.5">+Semaphore_PCP(int ceiling)</text></g></g><g transform="translate(-278,-110) scale(1,1)"><g><path fill="none" stroke="none"></path><text fill="#000000" stroke="none" font-family="Courier" font-size="12px" font-style="normal" font-weight="normal" text-decoration="none" x="509" y="560.5">+p(): void</text></g></g><g transform="translate(-278,-110) scale(1,1)"><g><path fill="none" stroke="none"></path><text fill="#000000" stroke="none" font-family="Courier" font-size="12px" font-style="normal" font-weight="normal" text-decoration="none" x="509" y="574.5">+v(): void</text></g></g><g transform="translate(-278,-110) scale(1,1)"><path fill="none" stroke="#000000" d="M 576 495 L 545 448" stroke-miterlimit="10"></path></g><g transform="translate(-278,-110) scale(1,1)"><path fill="#FFFFFF" stroke="none" d="M 563.2190115906152 460.3315699187503 L 545 448 L 549.163049930016 469.6025233544647"></path></g><g transform="translate(-278,-110) scale(1,1)"><path fill="none" stroke="#000000" d="M 563.2190115906152 460.3315699187503 L 545 448 L 549.163049930016 469.6025233544647 L 563.2190115906152 460.3315699187503" stroke-miterlimit="10"></path></g></g></svg>